<svg width="87" height="98" viewBox="0 0 87 98" fill="none" xmlns="http://www.w3.org/2000/svg">
<g opacity="0.3">
<mask id="mask0_1_11" style="mask-type:alpha" maskUnits="userSpaceOnUse" x="1" y="20" width="8" height="8">
<path d="M4.90962 27.9773C7.06885 27.9773 8.81925 26.1915 8.81925 23.9886C8.81925 21.7858 7.06885 20 4.90962 20C2.7504 20 1 21.7858 1 23.9886C1 26.1915 2.7504 27.9773 4.90962 27.9773Z" fill="url(#paint0_linear_1_11)"/>
</mask>
<g mask="url(#mask0_1_11)">
<path d="M4.90962 27.9773C7.06885 27.9773 8.81925 26.1915 8.81925 23.9886C8.81925 21.7858 7.06885 20 4.90962 20C2.7504 20 1 21.7858 1 23.9886C1 26.1915 2.7504 27.9773 4.90962 27.9773Z" fill="url(#paint1_linear_1_11)"/>
</g>
<mask id="mask1_1_11" style="mask-type:alpha" maskUnits="userSpaceOnUse" x="23" y="20" width="9" height="8">
<path d="M27.5525 27.9773C29.7117 27.9773 31.4621 26.1915 31.4621 23.9886C31.4621 21.7858 29.7117 20 27.5525 20C25.3932 20 23.6428 21.7858 23.6428 23.9886C23.6428 26.1915 25.3932 27.9773 27.5525 27.9773Z" fill="url(#paint2_linear_1_11)"/>
</mask>
<g mask="url(#mask1_1_11)">
<path d="M27.5528 27.9773C29.712 27.9773 31.4625 26.1915 31.4625 23.9886C31.4625 21.7858 29.712 20 27.5528 20C25.3936 20 23.6432 21.7858 23.6432 23.9886C23.6432 26.1915 25.3936 27.9773 27.5528 27.9773Z" fill="url(#paint3_linear_1_11)"/>
</g>
<mask id="mask2_1_11" style="mask-type:alpha" maskUnits="userSpaceOnUse" x="46" y="20" width="9" height="8">
<path d="M50.1953 27.9773C52.3546 27.9773 54.105 26.1915 54.105 23.9886C54.105 21.7858 52.3546 20 50.1953 20C48.0361 20 46.2857 21.7858 46.2857 23.9886C46.2857 26.1915 48.0361 27.9773 50.1953 27.9773Z" fill="url(#paint4_linear_1_11)"/>
</mask>
<g mask="url(#mask2_1_11)">
<path d="M50.196 27.9773C52.3552 27.9773 54.1056 26.1915 54.1056 23.9886C54.1056 21.7858 52.3552 20 50.196 20C48.0368 20 46.2864 21.7858 46.2864 23.9886C46.2864 26.1915 48.0368 27.9773 50.196 27.9773Z" fill="url(#paint5_linear_1_11)"/>
</g>
<mask id="mask3_1_11" style="mask-type:alpha" maskUnits="userSpaceOnUse" x="68" y="20" width="9" height="8">
<path d="M72.8381 27.9773C74.9973 27.9773 76.7477 26.1915 76.7477 23.9886C76.7477 21.7858 74.9973 20 72.8381 20C70.6789 20 68.9285 21.7858 68.9285 23.9886C68.9285 26.1915 70.6789 27.9773 72.8381 27.9773Z" fill="url(#paint6_linear_1_11)"/>
</mask>
<g mask="url(#mask3_1_11)">
<path d="M72.8387 27.9773C74.9979 27.9773 76.7483 26.1915 76.7483 23.9886C76.7483 21.7858 74.9979 20 72.8387 20C70.6795 20 68.9291 21.7858 68.9291 23.9886C68.9291 26.1915 70.6795 27.9773 72.8387 27.9773Z" fill="url(#paint7_linear_1_11)"/>
</g>
<mask id="mask4_1_11" style="mask-type:alpha" maskUnits="userSpaceOnUse" x="1" y="40" width="8" height="9">
<path d="M4.90962 48.0037C7.06885 48.0037 8.81925 46.2179 8.81925 44.015C8.81925 41.8122 7.06885 40.0264 4.90962 40.0264C2.7504 40.0264 1 41.8122 1 44.015C1 46.2179 2.7504 48.0037 4.90962 48.0037Z" fill="url(#paint8_linear_1_11)"/>
</mask>
<g mask="url(#mask4_1_11)">
<path d="M4.90962 48.0037C7.06885 48.0037 8.81925 46.218 8.81925 44.0151C8.81925 41.8122 7.06885 40.0265 4.90962 40.0265C2.7504 40.0265 1 41.8122 1 44.0151C1 46.218 2.7504 48.0037 4.90962 48.0037Z" fill="url(#paint9_linear_1_11)"/>
</g>
<mask id="mask5_1_11" style="mask-type:alpha" maskUnits="userSpaceOnUse" x="23" y="40" width="9" height="9">
<path d="M27.5525 48.0038C29.7117 48.0038 31.4621 46.218 31.4621 44.0151C31.4621 41.8123 29.7117 40.0265 27.5525 40.0265C25.3932 40.0265 23.6428 41.8123 23.6428 44.0151C23.6428 46.218 25.3932 48.0038 27.5525 48.0038Z" fill="url(#paint10_linear_1_11)"/>
</mask>
<g mask="url(#mask5_1_11)">
<path d="M27.5528 48.0037C29.712 48.0037 31.4625 46.2179 31.4625 44.0151C31.4625 41.8122 29.712 40.0264 27.5528 40.0264C25.3936 40.0264 23.6432 41.8122 23.6432 44.0151C23.6432 46.2179 25.3936 48.0037 27.5528 48.0037Z" fill="url(#paint11_linear_1_11)"/>
</g>
<mask id="mask6_1_11" style="mask-type:alpha" maskUnits="userSpaceOnUse" x="46" y="40" width="9" height="9">
<path d="M50.1953 48.0038C52.3546 48.0038 54.105 46.218 54.105 44.0151C54.105 41.8123 52.3546 40.0265 50.1953 40.0265C48.0361 40.0265 46.2857 41.8123 46.2857 44.0151C46.2857 46.218 48.0361 48.0038 50.1953 48.0038Z" fill="url(#paint12_linear_1_11)"/>
</mask>
<g mask="url(#mask6_1_11)">
<path d="M50.196 48.0037C52.3552 48.0037 54.1056 46.2179 54.1056 44.0151C54.1056 41.8122 52.3552 40.0264 50.196 40.0264C48.0368 40.0264 46.2864 41.8122 46.2864 44.0151C46.2864 46.2179 48.0368 48.0037 50.196 48.0037Z" fill="url(#paint13_linear_1_11)"/>
</g>
<mask id="mask7_1_11" style="mask-type:alpha" maskUnits="userSpaceOnUse" x="68" y="40" width="9" height="9">
<path d="M72.8381 48.0038C74.9973 48.0038 76.7477 46.218 76.7477 44.0151C76.7477 41.8123 74.9973 40.0265 72.8381 40.0265C70.6789 40.0265 68.9285 41.8123 68.9285 44.0151C68.9285 46.218 70.6789 48.0038 72.8381 48.0038Z" fill="url(#paint14_linear_1_11)"/>
</mask>
<g mask="url(#mask7_1_11)">
<path d="M72.8387 48.0037C74.9979 48.0037 76.7483 46.2179 76.7483 44.0151C76.7483 41.8122 74.9979 40.0264 72.8387 40.0264C70.6795 40.0264 68.9291 41.8122 68.9291 44.0151C68.9291 46.2179 70.6795 48.0037 72.8387 48.0037Z" fill="url(#paint15_linear_1_11)"/>
</g>
<mask id="mask8_1_11" style="mask-type:alpha" maskUnits="userSpaceOnUse" x="1" y="60" width="8" height="8">
<path d="M4.90962 67.9887C7.06885 67.9887 8.81925 66.2029 8.81925 64C8.81925 61.7971 7.06885 60.0113 4.90962 60.0113C2.7504 60.0113 1 61.7971 1 64C1 66.2029 2.7504 67.9887 4.90962 67.9887Z" fill="url(#paint16_linear_1_11)"/>
</mask>
<g mask="url(#mask8_1_11)">
<path d="M4.90962 67.9888C7.06885 67.9888 8.81925 66.203 8.81925 64.0001C8.81925 61.7972 7.06885 60.0114 4.90962 60.0114C2.7504 60.0114 1 61.7972 1 64.0001C1 66.203 2.7504 67.9888 4.90962 67.9888Z" fill="url(#paint17_linear_1_11)"/>
</g>
<mask id="mask9_1_11" style="mask-type:alpha" maskUnits="userSpaceOnUse" x="23" y="60" width="9" height="8">
<path d="M27.5525 67.9889C29.7117 67.9889 31.4621 66.2032 31.4621 64.0003C31.4621 61.7974 29.7117 60.0116 27.5525 60.0116C25.3932 60.0116 23.6428 61.7974 23.6428 64.0003C23.6428 66.2032 25.3932 67.9889 27.5525 67.9889Z" fill="url(#paint18_linear_1_11)"/>
</mask>
<g mask="url(#mask9_1_11)">
<path d="M27.5528 67.9888C29.712 67.9888 31.4625 66.203 31.4625 64.0001C31.4625 61.7972 29.712 60.0114 27.5528 60.0114C25.3936 60.0114 23.6432 61.7972 23.6432 64.0001C23.6432 66.203 25.3936 67.9888 27.5528 67.9888Z" fill="url(#paint19_linear_1_11)"/>
</g>
<mask id="mask10_1_11" style="mask-type:alpha" maskUnits="userSpaceOnUse" x="46" y="60" width="9" height="8">
<path d="M50.1953 67.9889C52.3546 67.9889 54.105 66.2032 54.105 64.0003C54.105 61.7974 52.3546 60.0116 50.1953 60.0116C48.0361 60.0116 46.2857 61.7974 46.2857 64.0003C46.2857 66.2032 48.0361 67.9889 50.1953 67.9889Z" fill="url(#paint20_linear_1_11)"/>
</mask>
<g mask="url(#mask10_1_11)">
<path d="M50.196 67.9888C52.3552 67.9888 54.1056 66.203 54.1056 64.0001C54.1056 61.7972 52.3552 60.0114 50.196 60.0114C48.0368 60.0114 46.2864 61.7972 46.2864 64.0001C46.2864 66.203 48.0368 67.9888 50.196 67.9888Z" fill="url(#paint21_linear_1_11)"/>
</g>
<mask id="mask11_1_11" style="mask-type:alpha" maskUnits="userSpaceOnUse" x="68" y="60" width="9" height="8">
<path d="M72.8381 67.9889C74.9973 67.9889 76.7477 66.2032 76.7477 64.0003C76.7477 61.7974 74.9973 60.0116 72.8381 60.0116C70.6789 60.0116 68.9285 61.7974 68.9285 64.0003C68.9285 66.2032 70.6789 67.9889 72.8381 67.9889Z" fill="url(#paint22_linear_1_11)"/>
</mask>
<g mask="url(#mask11_1_11)">
<path d="M72.8387 67.9888C74.9979 67.9888 76.7483 66.203 76.7483 64.0001C76.7483 61.7972 74.9979 60.0114 72.8387 60.0114C70.6795 60.0114 68.9291 61.7972 68.9291 64.0001C68.9291 66.203 70.6795 67.9888 72.8387 67.9888Z" fill="url(#paint23_linear_1_11)"/>
</g>
<mask id="mask12_1_11" style="mask-type:alpha" maskUnits="userSpaceOnUse" x="1" y="80" width="8" height="9">
<path d="M4.90962 88.0155C7.06885 88.0155 8.81925 86.2296 8.81925 84.0268C8.81925 81.8239 7.06885 80.0381 4.90962 80.0381C2.7504 80.0381 1 81.8239 1 84.0268C1 86.2296 2.7504 88.0155 4.90962 88.0155Z" fill="url(#paint24_linear_1_11)"/>
</mask>
<g mask="url(#mask12_1_11)">
<path d="M4.90962 88.0152C7.06885 88.0152 8.81925 86.2294 8.81925 84.0265C8.81925 81.8236 7.06885 80.0379 4.90962 80.0379C2.7504 80.0379 1 81.8236 1 84.0265C1 86.2294 2.7504 88.0152 4.90962 88.0152Z" fill="url(#paint25_linear_1_11)"/>
</g>
<mask id="mask13_1_11" style="mask-type:alpha" maskUnits="userSpaceOnUse" x="23" y="80" width="9" height="9">
<path d="M27.5525 88.0155C29.7117 88.0155 31.4621 86.2296 31.4621 84.0268C31.4621 81.8239 29.7117 80.0381 27.5525 80.0381C25.3932 80.0381 23.6428 81.8239 23.6428 84.0268C23.6428 86.2296 25.3932 88.0155 27.5525 88.0155Z" fill="url(#paint26_linear_1_11)"/>
</mask>
<g mask="url(#mask13_1_11)">
<path d="M27.5528 88.0152C29.712 88.0152 31.4625 86.2294 31.4625 84.0265C31.4625 81.8236 29.712 80.0379 27.5528 80.0379C25.3936 80.0379 23.6432 81.8236 23.6432 84.0265C23.6432 86.2294 25.3936 88.0152 27.5528 88.0152Z" fill="url(#paint27_linear_1_11)"/>
</g>
<mask id="mask14_1_11" style="mask-type:alpha" maskUnits="userSpaceOnUse" x="46" y="80" width="9" height="9">
<path d="M50.1953 88.0155C52.3546 88.0155 54.105 86.2296 54.105 84.0268C54.105 81.8239 52.3546 80.0381 50.1953 80.0381C48.0361 80.0381 46.2857 81.8239 46.2857 84.0268C46.2857 86.2296 48.0361 88.0155 50.1953 88.0155Z" fill="url(#paint28_linear_1_11)"/>
</mask>
<g mask="url(#mask14_1_11)">
<path d="M50.196 88.0152C52.3552 88.0152 54.1056 86.2294 54.1056 84.0265C54.1056 81.8236 52.3552 80.0379 50.196 80.0379C48.0368 80.0379 46.2864 81.8236 46.2864 84.0265C46.2864 86.2294 48.0368 88.0152 50.196 88.0152Z" fill="url(#paint29_linear_1_11)"/>
</g>
<mask id="mask15_1_11" style="mask-type:alpha" maskUnits="userSpaceOnUse" x="68" y="80" width="9" height="9">
<path d="M72.8381 88.0155C74.9973 88.0155 76.7477 86.2296 76.7477 84.0268C76.7477 81.8239 74.9973 80.0381 72.8381 80.0381C70.6789 80.0381 68.9285 81.8239 68.9285 84.0268C68.9285 86.2296 70.6789 88.0155 72.8381 88.0155Z" fill="url(#paint30_linear_1_11)"/>
</mask>
<g mask="url(#mask15_1_11)">
<path d="M72.8387 88.0152C74.9979 88.0152 76.7483 86.2294 76.7483 84.0265C76.7483 81.8236 74.9979 80.0379 72.8387 80.0379C70.6795 80.0379 68.9291 81.8236 68.9291 84.0265C68.9291 86.2294 70.6795 88.0152 72.8387 88.0152Z" fill="url(#paint31_linear_1_11)"/>
</g>
</g>
<defs>
<linearGradient id="paint0_linear_1_11" x1="39.076" y1="112.471" x2="-16.486" y2="-25.7764" gradientUnits="userSpaceOnUse">
<stop stop-color="#FFA434"/>
<stop offset="1" stop-color="#FFA434"/>
</linearGradient>
<linearGradient id="paint1_linear_1_11" x1="39.076" y1="112.471" x2="-16.486" y2="-25.7764" gradientUnits="userSpaceOnUse">
<stop stop-color="#FFA434"/>
<stop offset="1" stop-color="#FFA434"/>
</linearGradient>
<linearGradient id="paint2_linear_1_11" x1="61.7188" y1="112.471" x2="6.15687" y2="-25.7764" gradientUnits="userSpaceOnUse">
<stop stop-color="#FFA434"/>
<stop offset="1" stop-color="#FFA434"/>
</linearGradient>
<linearGradient id="paint3_linear_1_11" x1="61.7192" y1="112.471" x2="6.15724" y2="-25.7764" gradientUnits="userSpaceOnUse">
<stop stop-color="#FFA434"/>
<stop offset="1" stop-color="#FFA434"/>
</linearGradient>
<linearGradient id="paint4_linear_1_11" x1="84.3617" y1="112.471" x2="28.7998" y2="-25.7764" gradientUnits="userSpaceOnUse">
<stop stop-color="#FFA434"/>
<stop offset="1" stop-color="#FFA434"/>
</linearGradient>
<linearGradient id="paint5_linear_1_11" x1="84.3624" y1="112.471" x2="28.8004" y2="-25.7764" gradientUnits="userSpaceOnUse">
<stop stop-color="#FFA434"/>
<stop offset="1" stop-color="#FFA434"/>
</linearGradient>
<linearGradient id="paint6_linear_1_11" x1="107.004" y1="112.471" x2="51.4425" y2="-25.7764" gradientUnits="userSpaceOnUse">
<stop stop-color="#FFA434"/>
<stop offset="1" stop-color="#FFA434"/>
</linearGradient>
<linearGradient id="paint7_linear_1_11" x1="107.005" y1="112.471" x2="51.4431" y2="-25.7764" gradientUnits="userSpaceOnUse">
<stop stop-color="#FFA434"/>
<stop offset="1" stop-color="#FFA434"/>
</linearGradient>
<linearGradient id="paint8_linear_1_11" x1="39.076" y1="132.496" x2="-16.4851" y2="-5.74992" gradientUnits="userSpaceOnUse">
<stop stop-color="#FFA434"/>
<stop offset="1" stop-color="#FFA434"/>
</linearGradient>
<linearGradient id="paint9_linear_1_11" x1="39.076" y1="132.496" x2="-16.4851" y2="-5.74986" gradientUnits="userSpaceOnUse">
<stop stop-color="#FFA434"/>
<stop offset="1" stop-color="#FFA434"/>
</linearGradient>
<linearGradient id="paint10_linear_1_11" x1="61.7188" y1="132.496" x2="6.15782" y2="-5.74987" gradientUnits="userSpaceOnUse">
<stop stop-color="#FFA434"/>
<stop offset="1" stop-color="#FFA434"/>
</linearGradient>
<linearGradient id="paint11_linear_1_11" x1="61.7192" y1="132.496" x2="6.15818" y2="-5.74994" gradientUnits="userSpaceOnUse">
<stop stop-color="#FFA434"/>
<stop offset="1" stop-color="#FFA434"/>
</linearGradient>
<linearGradient id="paint12_linear_1_11" x1="84.3617" y1="132.496" x2="28.8007" y2="-5.74987" gradientUnits="userSpaceOnUse">
<stop stop-color="#FFA434"/>
<stop offset="1" stop-color="#FFA434"/>
</linearGradient>
<linearGradient id="paint13_linear_1_11" x1="84.3624" y1="132.496" x2="28.8014" y2="-5.74994" gradientUnits="userSpaceOnUse">
<stop stop-color="#FFA434"/>
<stop offset="1" stop-color="#FFA434"/>
</linearGradient>
<linearGradient id="paint14_linear_1_11" x1="107.004" y1="132.496" x2="51.4435" y2="-5.74987" gradientUnits="userSpaceOnUse">
<stop stop-color="#FFA434"/>
<stop offset="1" stop-color="#FFA434"/>
</linearGradient>
<linearGradient id="paint15_linear_1_11" x1="107.005" y1="132.496" x2="51.4441" y2="-5.74994" gradientUnits="userSpaceOnUse">
<stop stop-color="#FFA434"/>
<stop offset="1" stop-color="#FFA434"/>
</linearGradient>
<linearGradient id="paint16_linear_1_11" x1="39.076" y1="152.482" x2="-16.486" y2="14.2349" gradientUnits="userSpaceOnUse">
<stop stop-color="#FFA434"/>
<stop offset="1" stop-color="#FFA434"/>
</linearGradient>
<linearGradient id="paint17_linear_1_11" x1="39.076" y1="152.482" x2="-16.486" y2="14.235" gradientUnits="userSpaceOnUse">
<stop stop-color="#FFA434"/>
<stop offset="1" stop-color="#FFA434"/>
</linearGradient>
<linearGradient id="paint18_linear_1_11" x1="61.7188" y1="152.482" x2="6.15687" y2="14.2352" gradientUnits="userSpaceOnUse">
<stop stop-color="#FFA434"/>
<stop offset="1" stop-color="#FFA434"/>
</linearGradient>
<linearGradient id="paint19_linear_1_11" x1="61.7192" y1="152.482" x2="6.15724" y2="14.235" gradientUnits="userSpaceOnUse">
<stop stop-color="#FFA434"/>
<stop offset="1" stop-color="#FFA434"/>
</linearGradient>
<linearGradient id="paint20_linear_1_11" x1="84.3617" y1="152.482" x2="28.7998" y2="14.2352" gradientUnits="userSpaceOnUse">
<stop stop-color="#FFA434"/>
<stop offset="1" stop-color="#FFA434"/>
</linearGradient>
<linearGradient id="paint21_linear_1_11" x1="84.3624" y1="152.482" x2="28.8004" y2="14.235" gradientUnits="userSpaceOnUse">
<stop stop-color="#FFA434"/>
<stop offset="1" stop-color="#FFA434"/>
</linearGradient>
<linearGradient id="paint22_linear_1_11" x1="107.004" y1="152.482" x2="51.4425" y2="14.2352" gradientUnits="userSpaceOnUse">
<stop stop-color="#FFA434"/>
<stop offset="1" stop-color="#FFA434"/>
</linearGradient>
<linearGradient id="paint23_linear_1_11" x1="107.005" y1="152.482" x2="51.4431" y2="14.235" gradientUnits="userSpaceOnUse">
<stop stop-color="#FFA434"/>
<stop offset="1" stop-color="#FFA434"/>
</linearGradient>
<linearGradient id="paint24_linear_1_11" x1="39.076" y1="172.509" x2="-16.486" y2="34.2617" gradientUnits="userSpaceOnUse">
<stop stop-color="#FFA434"/>
<stop offset="1" stop-color="#FFA434"/>
</linearGradient>
<linearGradient id="paint25_linear_1_11" x1="39.076" y1="172.509" x2="-16.486" y2="34.2615" gradientUnits="userSpaceOnUse">
<stop stop-color="#FFA434"/>
<stop offset="1" stop-color="#FFA434"/>
</linearGradient>
<linearGradient id="paint26_linear_1_11" x1="61.7188" y1="172.509" x2="6.15687" y2="34.2617" gradientUnits="userSpaceOnUse">
<stop stop-color="#FFA434"/>
<stop offset="1" stop-color="#FFA434"/>
</linearGradient>
<linearGradient id="paint27_linear_1_11" x1="61.7192" y1="172.509" x2="6.15724" y2="34.2614" gradientUnits="userSpaceOnUse">
<stop stop-color="#FFA434"/>
<stop offset="1" stop-color="#FFA434"/>
</linearGradient>
<linearGradient id="paint28_linear_1_11" x1="84.3617" y1="172.509" x2="28.7998" y2="34.2617" gradientUnits="userSpaceOnUse">
<stop stop-color="#FFA434"/>
<stop offset="1" stop-color="#FFA434"/>
</linearGradient>
<linearGradient id="paint29_linear_1_11" x1="84.3624" y1="172.509" x2="28.8004" y2="34.2614" gradientUnits="userSpaceOnUse">
<stop stop-color="#FFA434"/>
<stop offset="1" stop-color="#FFA434"/>
</linearGradient>
<linearGradient id="paint30_linear_1_11" x1="107.004" y1="172.509" x2="51.4425" y2="34.2617" gradientUnits="userSpaceOnUse">
<stop stop-color="#FFA434"/>
<stop offset="1" stop-color="#FFA434"/>
</linearGradient>
<linearGradient id="paint31_linear_1_11" x1="107.005" y1="172.509" x2="51.4431" y2="34.2614" gradientUnits="userSpaceOnUse">
<stop stop-color="#FFA434"/>
<stop offset="1" stop-color="#FFA434"/>
</linearGradient>
</defs>
</svg>
